<?xml version="1.0" encoding="UTF-8"?>
<svg width="752pt" height="752pt" version="1.1" viewBox="0 0 752 752" xmlns="http://www.w3.org/2000/svg">
 <g> 
  <path fill = "rgb(119, 13, 13" d="m572.75 344.15-109.23-101.25c-8.5664-7.9414-21.16-9.4531-31.367-3.7773l-239.72 133.39c-0.039062 0.023437-0.066406 0.042968-0.10547 0.066406-1.8789 0.96094-3.4609 1.9688-4.7305 3.0195-7.9688 5.5547-8.2578 9.6719-8.2578 27.133v58.953c0 6.1562 2.5859 12.086 7.0977 16.273l111.39 103.25c3.8203 3.5469 8.7188 5.3789 13.668 5.3789 3.3438 0 6.7148-0.83984 9.793-2.5469l251.41-139.9c3.9922-2.2305 6.8867-7.1562 6.8867-11.727v-72.59c0-5.3164-2.9375-12.059-6.8398-15.676zm-3.6992 68.988-253.15 140.86c-3.7617 2.082-8.4023 1.5312-11.551-1.3906l-114.47-106.11v-11.773l111.61 103.46c2.6758 2.4844 6.1133 3.7695 9.5898 3.7695 2.3477 0 4.7188-0.58203 6.8711-1.7891l251.11-139.73zm-376.47-10.074 87.727 80.266c15.363 13.812 23.051 20.188 31.926 20.188 7.4297 0 15.695-4.4688 29.992-12.781l221.07-123.01c2.1562-1.1523 4.0742-2.3008 5.7578-3.5v13.07l-253.15 140.87c-3.7656 2.0938-8.3906 1.5312-11.551-1.3906l-114.47-106.11v-7.918-1.8984c1.1758 1.0586 2.1719 1.832 2.707 2.2188zm376.47-7.4531-253.15 140.87c-3.7617 2.082-8.4023 1.5312-11.551-1.3906l-114.47-106.12v-12.57l111.61 103.46c2.6758 2.4844 6.1094 3.7734 9.5859 3.7734 2.3555 0 4.7188-0.58594 6.875-1.793l251.11-139.73zm-131.76-147.27c2.4961-1.3906 5.2383-2.0742 7.957-2.0742 4.0195 0 8.0078 1.4922 11.113 4.375l103.07 95.547c8.1016 7.5078 7.5977 7.5977-1.1875 12.289l-221.23 123.11c-13.207 7.6797-20.477 11.957-25.727 11.285-5.3242-0.64063-11.934-6.5859-23.898-17.336l-87.922-80.457-0.53906-0.42969c-2.7852-1.9648-6.543-5.9922-6.3516-8.4453 0.050781-0.66797 0.51953-1.3984 1.332-2.1406 1-0.72266 2.2344-1.4727 3.793-2.4062zm130.29 186.59-251.41 139.9c-3.6211 2.0312-8.1172 1.4883-11.168-1.3516l-111.39-103.25c-2.3672-2.1914-3.7266-5.3047-3.7266-8.5352v-9.4492l111.61 103.46c2.6758 2.4844 6.1133 3.7695 9.5898 3.7695 2.3477 0 4.7188-0.58203 6.8711-1.7891l251.1-139.72v14.453c0 0.73047-0.84375 2.1641-1.4766 2.5156z"/>
  <path fill = "rgb(119, 13, 13" d="m219.97 400.08 71.711 65.609c12.285 11.043 18.426 16.141 25.527 16.141 5.9336 0 12.539-3.5703 23.973-10.215l194.56-108.86c5.4805-2.9258 9.2383-5.7344 9.7812-9.9375 0.55469-4.3047-2.5-8.125-7.2656-12.539l-84.043-77.902c-6.707-6.2148-16.578-7.4023-24.578-2.9492l-209.49 117.16c-5.1875 2.5352-7.9688 5.8828-8.2891 9.9688-0.5625 7.3203 7.5469 13.172 8.1133 13.531zm3.3672-17.406 15.992-8.9453c-0.41016 1.1953 0.18359 2.4102 1.4805 2.793 1.3906 0.41016 3.0391-0.29297 3.6562-1.5664l2.7266-5.625 46.844-26.199 14.656 4.3242c1.3984 0.41016 3.0391-0.29297 3.6562-1.5664 0.61719-1.2734-0.019531-2.6523-1.4141-3.0625l-10.707-3.1562 40.207-22.484-7.957 16.418c-0.61719 1.2734 0.019532 2.6523 1.4141 3.0625 1.3984 0.41016 3.0391-0.29297 3.6602-1.5664l10.836-22.363 24.445-13.672 28.941 8.5352c1.3984 0.41016 3.0391-0.29297 3.6602-1.5664 0.61719-1.2734-0.019532-2.6523-1.4141-3.0625l-24.992-7.3672 53.961-30.18c2.168-1.2031 4.5508-1.793 6.9062-1.793 3.4961 0 6.9492 1.293 9.6484 3.7891l43.156 40.008-2.5898 5.3477c-0.61719 1.2734 0.019531 2.6523 1.4141 3.0625 1.3984 0.41016 3.0391-0.29297 3.6562-1.5664l1.5195-3.1367 30.309 28.098-23.5-6.9297c-1.3984-0.41016-3.0391 0.29297-3.6562 1.5664-0.61719 1.2734 0.019532 2.6523 1.4141 3.0625l29.594 8.7266c0.88281 0.26172 1.832 0.039063 2.5898-0.45312l0.12891 0.11328c4.8125 4.4609 5.1797 6.1094 5.1211 6.6172-0.0625 0.46484-0.78516 1.8594-6.2617 4.7891l-81.906 45.828c-0.24219-0.20313-0.41797-0.46094-0.76172-0.5625-1.3906-0.41016-3.0391 0.29297-3.6562 1.5664l-0.97656 2.0156-51.66 28.902-11.59-3.418c-1.3906-0.41016-3.0391 0.29297-3.6562 1.5664-0.61719 1.2734 0.019531 2.6484 1.4141 3.0625l7.6406 2.25-35.406 19.809 6.2188-12.836c0.61719-1.2734-0.019531-2.6523-1.4141-3.0625-1.3984-0.41016-3.0391 0.29297-3.6562 1.5664l-9.1016 18.781-6.168 3.4492c-21.773 12.664-21.781 12.668-41.465-5.043l-13.559-12.395 10.816-22.324c0.61719-1.2734-0.019531-2.6484-1.4141-3.0586-1.3984-0.41016-3.0391 0.29297-3.6562 1.5664l-9.7656 20.145-54.461-49.805c-1.9023-1.3359-5.7578-4.9648-5.5469-7.6562 0.15625-1.8398 2.5078-3.3516 4.6289-4.3984z"/>
  <path fill = "rgb(119, 13, 13" d="m417.78 315.79c3.2383 0.95703 7.0273-0.66406 8.4648-3.6211 1.4336-2.957-0.03125-6.1289-3.2734-7.0859-3.2383-0.95312-7.0273 0.66797-8.4648 3.6211-1.4336 2.9609 0.035157 6.1328 3.2734 7.0859z"/>
  <path fill = "rgb(119, 13, 13" d="m426.98 296.8c1.3984 0.41016 3.0391-0.29297 3.6562-1.5664l13.086-27.004c0.61719-1.2734-0.019531-2.6484-1.4141-3.0625-1.3984-0.41016-3.0391 0.29297-3.6562 1.5664l-13.086 27.004c-0.61719 1.2734 0.023438 2.6484 1.4141 3.0625z"/>
  <path fill = "rgb(119, 13, 13" d="m324.7 355.65c3.2383 0.95312 7.0273-0.66797 8.4648-3.6211 1.4297-2.957-0.03125-6.1289-3.2734-7.0859-3.2383-0.95312-7.0273 0.66797-8.4648 3.6211-1.4336 2.957 0.027344 6.1289 3.2734 7.0859z"/>
  <path fill = "rgb(119, 13, 13" d="m389.24 374.68c3.2383 0.95703 7.0273-0.66797 8.457-3.6211 1.4336-2.957-0.03125-6.1289-3.2734-7.0859-3.2383-0.95703-7.0273 0.66797-8.4648 3.6211-1.4258 2.9609 0.042968 6.1328 3.2812 7.0859z"/>
  <path fill = "rgb(119, 13, 13" d="m343.64 357.77 29.594 8.7227c1.3906 0.41016 3.0391-0.29297 3.6562-1.5664 0.61719-1.2734-0.019531-2.6484-1.4141-3.0586l-29.594-8.7266c-1.3984-0.41016-3.0391 0.29297-3.6562 1.5664-0.61719 1.2695 0.019531 2.6484 1.4141 3.0625z"/>
  <path fill = "rgb(119, 13, 13" d="m482.32 334.82c3.2383 0.95313 7.0273-0.66797 8.4648-3.6211 1.4297-2.957-0.03125-6.1289-3.2734-7.0781-3.2383-0.95703-7.0273 0.66797-8.4648 3.6211-1.4297 2.9531 0.035157 6.1211 3.2734 7.0781z"/>
  <path fill = "rgb(119, 13, 13" d="m435.31 314.84c-0.61719 1.2734 0.019531 2.6484 1.4141 3.0586l29.594 8.7266c1.3984 0.41016 3.0391-0.29297 3.6562-1.5664 0.61719-1.2734-0.019531-2.6484-1.4141-3.0586l-29.594-8.7266c-1.3906-0.41016-3.0352 0.29687-3.6562 1.5664z"/>
  <path fill = "rgb(119, 13, 13" d="m458.98 383c-3.2383-0.95312-7.0273 0.66797-8.4648 3.6211-1.4297 2.957 0.03125 6.1289 3.2734 7.0859 3.2383 0.95312 7.0273-0.66797 8.4648-3.6211 1.4297-2.9609-0.03125-6.1289-3.2734-7.0859z"/>
  <path fill = "rgb(119, 13, 13" d="m462.99 374.73c1.3984 0.41016 3.0391-0.29297 3.6562-1.5664l13.086-27.004c0.61719-1.2734-0.019531-2.6523-1.4141-3.0625-1.3906-0.41016-3.0391 0.29297-3.6562 1.5664l-13.082 27.004c-0.62109 1.2773 0.011719 2.6562 1.4102 3.0625z"/>
  <path fill = "rgb(119, 13, 13" d="m440.03 380.89-29.602-8.7305c-1.3906-0.41016-3.0391 0.29297-3.6562 1.5664-0.61719 1.2734 0.019531 2.6523 1.4141 3.0625l29.594 8.7266c1.3984 0.41016 3.0391-0.29297 3.6562-1.5664 0.625-1.2734-0.015625-2.6523-1.4062-3.0586z"/>
  <path fill = "rgb(119, 13, 13" d="m398.44 355.7c1.3984 0.41016 3.0391-0.29297 3.6562-1.5664l13.086-27c0.61719-1.2734-0.019532-2.6523-1.4141-3.0625-1.3984-0.41016-3.0391 0.29297-3.6562 1.5664l-13.086 27.004c-0.62109 1.2734 0.019531 2.6484 1.4141 3.0586z"/>
  <path fill = "rgb(119, 13, 13" d="m231.61 395.51c3.2383 0.95313 7.0273-0.66797 8.4648-3.6211 1.4297-2.957-0.03125-6.1289-3.2734-7.0781-3.2383-0.95703-7.0273 0.66797-8.4648 3.6211-1.4258 2.9531 0.035156 6.1211 3.2734 7.0781z"/>
  <path fill = "rgb(119, 13, 13" d="m296.16 414.54c3.2383 0.95703 7.0273-0.66406 8.4648-3.6211 1.4297-2.957-0.03125-6.1289-3.2734-7.0859-3.2383-0.95703-7.0273 0.66797-8.4648 3.6211-1.4336 2.9609 0.03125 6.1289 3.2734 7.0859z"/>
  <path fill = "rgb(119, 13, 13" d="m250.56 397.62 29.594 8.7266c1.3906 0.41016 3.0391-0.29297 3.6562-1.5664 0.61719-1.2734-0.019532-2.6523-1.4141-3.0625l-29.594-8.7266c-1.3984-0.41016-3.0391 0.29297-3.6562 1.5664-0.61719 1.2734 0.023438 2.6523 1.4141 3.0625z"/>
  <path fill = "rgb(119, 13, 13" d="m365.89 422.87c-3.2383-0.95313-7.0273 0.66797-8.4648 3.6211-1.4297 2.957 0.03125 6.1289 3.2773 7.0859 3.2383 0.95312 7.0273-0.66797 8.4648-3.6211 1.4297-2.957-0.035157-6.1289-3.2773-7.0859z"/>
  <path fill = "rgb(119, 13, 13" d="m313.69 413.59c-0.61719 1.2734 0.019532 2.6484 1.4141 3.0586l29.594 8.7266c1.3906 0.41016 3.0391-0.29297 3.6562-1.5664 0.61719-1.2734-0.019531-2.6484-1.4141-3.0625l-29.594-8.7227c-1.3906-0.41406-3.0391 0.29297-3.6562 1.5664z"/>
  <path fill = "rgb(119, 13, 13" d="m305.36 395.56c1.3906 0.41016 3.0391-0.29297 3.6562-1.5664l13.082-27.004c0.61719-1.2734-0.019531-2.6523-1.4141-3.0625-1.3984-0.41016-3.0391 0.29297-3.6562 1.5664l-13.086 27.004c-0.61328 1.2695 0.023438 2.6484 1.418 3.0625z"/>
  <path fill = "rgb(119, 13, 13" d="m369.9 414.59c1.3984 0.41016 3.0391-0.29297 3.6562-1.5664l13.086-27.004c0.61719-1.2734-0.019531-2.6484-1.4141-3.0586-1.3984-0.41016-3.0391 0.29297-3.6562 1.5664l-13.086 27c-0.61719 1.2695 0.019531 2.6484 1.4141 3.0625z"/>
 </g>
</svg>
